<mxfile host="app.diagrams.net" modified="2024-06-20T13:25:44.542Z" agent="Mozilla/5.0 (Windows NT 10.0; Win64; x64; rv:127.0) Gecko/20100101 Firefox/127.0" etag="2TriGLe94SoYAm9y5uzK" version="24.0.7" type="github">
  <diagram name="PÃ¡gina-1" id="Pgi_9x58ayXvwlMUry6i">
    <mxGraphModel dx="1434" dy="782" grid="1" gridSize="10" guides="1" tooltips="1" connect="1" arrows="1" fold="1" page="1" pageScale="1" pageWidth="827" pageHeight="1169" math="0" shadow="0">
      <root>
        <mxCell id="0" />
        <mxCell id="1" parent="0" />
      </root>
    </mxGraphModel>
  </diagram>
</mxfile>
